<svg width="525" height="497" xmlns="http://www.w3.org/2000/svg" xmlns:xlink="http://www.w3.org/1999/xlink" overflow="hidden"><defs><clipPath id="clip0"><rect x="377" y="111" width="525" height="497"/></clipPath></defs><g clip-path="url(#clip0)" transform="translate(-377 -111)"><path d="M726.271 123.559C722.069 125.956 718.467 126.156 714.766 125.956 696.158 125.157 677.449 125.157 658.841 124.758 643.234 124.458 627.927 125.357 613.12 130.951 598.614 136.444 582.707 137.643 569.101 145.234 559.697 150.429 550.292 155.922 545.49 166.61 543.189 171.804 537.387 173.203 532.284 174.701 531.084 175.1 529.283 174.901 528.883 176.399 528.483 177.997 530.083 178.597 531.184 179.396 533.285 180.994 534.886 182.792 533.685 185.688 532.184 189.185 529.183 190.583 525.682 190.483 522.58 190.383 520.179 189.085 519.779 185.589 519.679 184.49 519.979 182.992 518.478 182.692 517.078 182.392 516.477 183.691 516.077 184.79 513.176 192.78 506.373 197.775 500.97 203.768 491.566 214.356 480.962 223.745 470.457 233.334 465.855 237.53 462.853 242.524 460.953 248.317 459.952 251.514 458.852 254.71 457.251 257.607 447.747 274.987 444.945 294.465 439.543 313.044 438.843 315.341 438.543 318.038 438.943 320.436 440.543 329.425 439.343 338.315 437.842 347.205 435.241 362.488 437.242 377.671 439.843 392.853 444.645 421.721 452.749 449.589 465.955 475.859 478.56 500.831 497.169 520.808 517.178 539.886 539.588 561.262 567.4 571.95 596.213 582.139 626.126 592.727 656.74 591.228 687.354 592.427 701.86 592.926 715.766 590.329 728.572 584.136 737.376 579.841 746.98 578.443 756.084 575.146 773.392 568.953 787.098 557.067 801.505 546.379 817.212 534.692 831.118 521.108 841.823 504.527 845.524 498.733 849.526 498.633 852.227 503.428 853.428 505.625 853.128 507.623 852.027 509.621 845.324 521.308 838.621 533.094 827.616 541.485 822.714 545.18 819.312 550.075 815.411 554.57 802.405 569.453 787.298 581.14 768.09 587.632 750.882 593.426 733.974 600.218 715.666 602.116 692.656 604.513 669.646 608.509 646.435 606.411 603.216 602.316 561.597 592.926 524.781 568.055 518.478 563.759 513.676 557.966 507.573 553.671 505.873 552.472 504.172 549.875 502.471 554.07 501.571 556.168 499.97 554.07 498.869 553.371 487.164 545.38 477.16 535.591 469.256 524.005 445.546 489.244 426.437 452.685 416.033 411.932 408.829 383.764 408.629 355.496 412.531 326.828 416.533 297.861 422.936 269.593 430.039 241.325 431.539 235.432 433.44 229.838 436.842 224.744 440.243 219.85 440.343 214.056 441.344 208.563 441.844 205.766 442.144 202.969 442.644 200.172 444.945 187.686 449.748 177.198 459.352 167.809 470.957 156.522 483.262 147.732 499.07 144.236 500.07 144.036 501.171 143.836 501.871 143.337 513.876 134.347 528.583 136.544 542.089 134.047 552.393 132.149 562.598 130.052 572.703 127.355 573.303 127.155 574.103 126.955 574.503 126.456 582.007 116.867 593.111 117.066 603.516 116.367 613.821 115.668 624.025 114.469 634.23 112.871 648.236 110.773 662.142 112.971 676.049 114.17 684.552 114.869 692.956 115.368 701.46 115.868 710.164 116.367 717.867 119.663 726.271 123.559Z" fill="#FFF" fill-rule="evenodd"/><path d="M891.946 372C891.342 359.702 890.738 347.603 891.845 335.504 894.26 309.307 890.135 284.11 881.884 259.312 881.28 257.613 881.079 255.213 878.06 255.613 876.551 255.813 876.551 254.113 876.249 253.013 871.419 235.615 860.753 221.817 849.383 208.418 831.473 187.12 809.537 170.422 787.401 154.024 783.778 151.324 779.653 149.425 775.729 147.125 773.515 145.825 771 144.325 772.408 141.326 773.917 137.926 776.936 138.926 779.351 140.126 788.91 144.725 797.563 150.625 805.714 157.424 821.209 170.422 838.516 181.221 851.798 196.72 867.294 214.917 882.286 233.615 891.242 256.013 897.983 273.011 901.203 290.909 901.706 309.207 902.209 327.005 902.813 344.903 896.575 362.101 895.166 365.601 894.461 369.2 891.946 372Z" fill="#FFF" fill-rule="evenodd"/><path d="M378.056 199.107C378.155 189.983 383.447 181.67 390.734 178.831 397.423 176.297 408.205 179.744 413.995 186.637 416.192 189.172 418.188 191.808 419.286 195.153 420.684 199.208 420.085 202.756 416.99 205.797 413.995 208.94 410.9 211.981 407.406 214.617 402.015 218.774 396.425 220.801 390.036 216.949 383.347 212.792 377.357 208.129 378.056 199.107Z" fill="#FFF" fill-rule="evenodd"/><path d="M595.044 321.454C595.044 308.39 595.222 295.495 595.044 282.431 594.867 274.626 598.417 270.894 606.76 271.063 616.168 271.233 625.754 270.724 635.162 271.233 652.381 272.081 666.404 284.467 669.422 300.585 672.44 317.043 663.386 333.84 648.298 339.778 637.292 344.02 626.641 343.171 617.056 336.894 610.31 332.652 609.245 334.688 609.423 341.135 609.778 347.583 609.6 354.199 609.423 360.647 609.423 365.397 609.778 371.166 602.322 370.996 595.577 370.657 595.222 365.228 595.222 360.307 594.867 347.413 595.044 334.349 595.044 321.454ZM655.221 307.542C655.398 293.459 646.168 283.619 632.677 283.279 619.009 282.94 609.245 292.781 609.245 306.693 609.068 320.775 618.299 330.107 632.322 330.446 645.458 330.616 655.043 320.945 655.221 307.542Z" fill="#FFF" fill-rule="evenodd"/><path d="M724.772 315.508C718.495 315.508 712.218 315.508 705.941 315.508 703.431 315.508 700.023 314.997 698.947 317.891 697.871 320.615 700.023 322.658 701.637 324.701 708.811 333.723 721.723 336.617 733.919 332.021 738.581 330.318 744.679 325.382 747.907 332.021 751.135 338.83 743.065 340.703 738.402 342.745 719.93 350.406 698.768 344.107 689.083 328.446 679.578 312.784 683.703 292.016 698.947 281.121 710.066 273.121 722.799 271.929 735.353 277.206 747.907 282.483 753.646 293.038 754.902 305.635 755.619 311.593 752.391 314.827 746.293 314.997 738.94 315.678 731.946 315.508 724.772 315.508 724.772 315.508 724.772 315.508 724.772 315.508ZM718.854 303.592C723.696 303.592 728.359 303.762 733.201 303.592 740.734 303.251 741.989 300.528 737.864 294.399 730.511 283.675 710.066 283.675 702.175 294.399 700.561 296.612 697.871 299.166 699.844 302.06 701.458 304.613 704.686 303.592 707.376 303.762 711.142 303.762 714.908 303.762 718.854 303.592Z" fill="#FFF" fill-rule="evenodd"/><path d="M532.47 345.998C504.706 346.217 483.475 326.77 483.008 300.986 482.541 273.891 502.606 254.444 531.303 254.007 559.067 253.57 580.998 273.891 580.998 299.893 581.231 325.896 560 345.78 532.47 345.998ZM562.567 300.112C562.567 281.976 550.201 269.739 532.003 269.739 513.338 269.739 501.673 281.976 501.906 301.204 502.139 318.467 514.505 330.484 532.003 330.484 550.201 330.484 562.567 318.248 562.567 300.112Z" fill="#FFF" fill-rule="evenodd"/><path d="M769.262 309.243C769.262 300.363 769.262 291.654 769.262 282.773 769.262 276.796 772.34 273.893 778.678 274.064 788.637 274.235 798.597 273.722 808.557 274.235 825.398 275.088 835.538 284.481 838.436 300.021 840.609 311.292 839.884 322.734 839.884 334.005 839.884 335.884 839.341 337.933 838.617 339.811 837.349 342.885 835.176 345.447 831.192 344.935 827.389 344.422 825.578 341.69 825.578 338.274 825.398 330.931 825.398 323.417 825.398 316.074 825.398 310.951 825.035 305.828 823.768 300.875 821.232 291.312 814.17 286.189 803.305 286.359 792.44 286.53 785.197 291.824 783.205 301.217 782.481 304.291 782.481 307.365 782.3 310.609 782.118 317.952 782.3 325.466 782.118 332.81 781.937 337.762 783.567 344.764 775.781 344.764 767.451 344.764 769.443 337.421 769.08 332.297 768.899 328.37 769.08 324.271 769.08 320.343 769.262 316.586 769.262 312.829 769.262 309.243 769.262 309.243 769.262 309.243 769.262 309.243Z" fill="#FFF" fill-rule="evenodd"/><path d="M650.022 476.866C657.451 461.701 663.612 448.776 669.954 435.851 671.041 433.439 672.31 431.198 673.759 429.13 675.933 426.201 678.833 425.167 682.457 426.718 686.081 428.441 686.805 431.371 685.175 434.645 681.913 441.366 678.651 448.259 675.39 454.98 669.954 466.182 664.337 477.211 658.719 488.413 656.907 492.032 654.914 495.995 649.841 495.995 644.586 496.168 643.136 491.859 641.324 488.24 633.352 472.213 625.379 456.187 617.406 439.987 615.232 435.507 610.702 429.82 617.95 426.718 625.016 423.788 626.828 430.509 629.184 434.99 635.888 448.259 642.411 461.357 650.022 476.866Z" fill="#FFF" fill-rule="evenodd"/><path d="M706.158 455.537C706.158 445.764 705.803 436.163 706.158 426.39 706.869 408.731 717.18 397.072 732.468 396.215 736.734 395.872 742.245 395.186 742.956 401.187 743.49 406.33 739.045 407.702 734.601 408.045 729.09 408.731 725.357 411.645 722.868 416.103 718.246 424.333 720.38 427.762 730.157 428.448 734.246 428.791 739.401 428.276 739.401 433.934 739.223 439.592 734.068 439.249 729.979 439.078 722.513 438.563 720.202 441.821 720.38 448.679 720.735 461.195 720.557 473.711 720.38 486.227 720.38 491.028 719.669 496 713.269 496 706.869 496 706.158 490.857 706.158 486.056 706.158 476.112 706.158 465.824 706.158 455.537Z" fill="#FFF" fill-rule="evenodd"/><path d="M444.749 158C437.219 158 432.901 153.832 433.002 146.786 433.102 138.748 439.327 132.099 446.958 132 453.484 132 457.098 136.267 456.998 144.107 456.998 152.641 452.179 158 444.749 158Z" fill="#FFF" fill-rule="evenodd"/><path d="M584 461.094C584 452.368 584 443.471 584 434.744 584 430.467 584.906 426.189 590.345 426.018 596.327 425.676 598.321 430.296 597.959 434.744 596.69 452.881 597.234 471.019 597.234 489.156 597.234 492.92 595.24 496 590.708 496 586.357 496 584.181 493.262 584 489.327 584 479.745 584.181 470.334 584 461.094 584.181 461.094 584 461.094 584 461.094Z" fill="#FFF" fill-rule="evenodd"/><path d="M799.104 205C793.508 205 790.81 202.687 791.01 197.859 791.11 192.729 795.307 188.103 799.904 188.002 804.8 187.901 808.098 191.422 807.998 196.752 807.898 202.586 805.2 205 799.104 205Z" fill="#FFF" fill-rule="evenodd"/><path d="M407.199 153C401.8 153 399 150.5 399 145.8 399 140.7 403.299 136 407.799 136 412.698 136.1 415.897 139.2 415.997 144.2 416.097 150.3 413.398 153 407.199 153Z" fill="#FFF" fill-rule="evenodd"/><path d="M482.914 259.394C483.013 262.034 482.716 264.37 481.726 266.502 479.548 270.97 476.875 272.086 473.015 269.954 468.956 267.72 467.867 264.268 470.243 260.207 471.926 257.262 473.807 254.622 474.203 251.068 474.401 249.444 475.391 248.327 477.073 248.022 478.657 247.819 479.35 249.038 480.241 250.053 482.32 252.998 483.31 256.145 482.914 259.394Z" fill="#FFF" fill-rule="evenodd"/><path d="M602.997 392.6C603.173 398.502 595.959 410.475 592.44 410.981 588.393 411.487 580.827 401.875 581.003 396.479 581.003 390.239 586.985 384 592.968 384 599.302 384 602.117 387.71 602.997 392.6Z" fill="#FFF" fill-rule="evenodd"/><path d="M468 128.554C468 124.878 471.324 121.103 474.856 121.003 478.596 120.904 480.674 123.09 480.985 126.468 481.297 129.746 476.622 137.098 474.337 136.999 472.259 136.9 468.104 131.336 468 128.554Z" fill="#FFF" fill-rule="evenodd"/></g></svg>